<svg transform="scale(2)" version="1.1" id="VfdYMznQu9" xmlns="http://www.w3.org/2000/svg" xmlns:xlink="http://www.w3.org/1999/xlink" x="0px" y="0px" viewBox="0 0 500 500" xml:space="preserve" class="pbimage_pbimage__wrapper__image__0LEis false"><title>Order Confirmed</title><style type="text/css"> .st0{fill:#F7BA1B;} .st1{opacity:0.32;fill:url(#SVGID_1_-VfdYMznQu9);enable-background:new;} .st2{fill:#FFC9B5;} .st3{fill:#8CCC00;} .st4{opacity:0.4;fill:#2C1D1A;enable-background:new;} .st5{fill:#2C1D1A;} .st6{fill:#E04F4F;} .st7{opacity:0.32;fill:url(#SVGID_00000045611756093486597760000017439438547584593553_-VfdYMznQu9);enable-background:new;} .st8{fill:#68E1FD;} .st9{fill:#124577;} .st10{fill:#F29D40;} .st11{opacity:0.32;fill:url(#SVGID_00000144311061364454712460000015420498555086222780_-VfdYMznQu9);enable-background:new;} .st12{fill:#FFFFFF;} .st13{opacity:0.3;fill:#2C1D1A;enable-background:new;} .st14{opacity:0.5;fill:#2C1D1A;enable-background:new;} .st15{opacity:0.32;fill:url(#SVGID_00000165937228780801130280000013900250584272099219_-VfdYMznQu9);enable-background:new;} .st16{opacity:0.32;fill:url(#SVGID_00000163048176888300424360000007405819191276051369_-VfdYMznQu9);enable-background:new;} .st17{opacity:0.2;fill:#F29D40;enable-background:new;} .st18{opacity:0.6;fill:#2C1D1A;enable-background:new;}
 .st18{fill:#2C1D1A;}
 .st17{fill:#F29D40;}
 .st14{fill:#2C1D1A;}
 .st13{fill:#2C1D1A;}
 .st12{fill:#FFFFFF;}
 .st10{fill:#F29D40;}
 .st9{fill:#124577;}
 .st8{fill:#68E1FD;}
 .st6{fill:#E04F4F;}
 .st5{fill:#2C1D1A;}
 .st4{fill:#2C1D1A;}
 .st3{fill:#8CCC00;}
 .st2{fill:#FFC9B5;}
 .st0{fill:#F7BA1B;}</style><path class="st0" id="field" d="M257,449l221.4-130.8c7-4,13.1-10.5,6.2-14.7l-222.1-128c-3.3-2.1-8.4-3.4-11.8-1.4L18.3,308.9
	c-7,4.1-8.3,15.5-1.3,19.6l210.8,120.3C236.9,454,247.9,454.1,257,449z"></path><g id="person"><linearGradient id="SVGID_1_-VfdYMznQu9" gradientUnits="userSpaceOnUse" x1="197.8482" y1="143.6326" x2="150.5382" y2="110.3126" gradientTransform="matrix(1 0 0 -1 0 502)"><stop offset="0" style="stop-color: rgb(91, 29, 92);"></stop><stop offset="1" style="stop-color: rgb(247, 186, 27);"></stop></linearGradient><path class="st1" d="M182.2,355.8c-16.1,9.4-32.7,17.8-48.9,27.1l30.3,16.7l47.8-29.8L182.2,355.8z"></path><path class="st2" d="M219.9,163.6c0.9-2.4,1.7-4.9,2.3-7.4c0.3-1.8-1.5-8.4-0.2-8.8s2.8,4.2,2.8,4.2s3.6-8.2,4.6-8.6
		s3.9-0.7,4.7,0.1s2.7,5.5,1.8,7.2c-1.9,2.9-3.9,5.7-6.1,8.4c-0.3,0.2-4.1,8.5-4.7,8.8S220.2,165.4,219.9,163.6z" fill="#FFC9B5"></path><path class="st3" d="M179.9,190.2c0,0,20-7.9,23.5-10.8s16.1-17.6,16.1-17.6s7.3,2.7,7.2,6.3c0,0-10.2,17-14.9,21.6
		s-22,16-25.8,15.8S179.9,190.2,179.9,190.2z" fill="#8CCC00"></path><path class="st4" d="M179.9,190.2c0,0,20-7.9,23.5-10.8s16.1-17.6,16.1-17.6s7.3,2.7,7.2,6.3c0,0-10.2,17-14.9,21.6
		s-22,16-25.8,15.8S179.9,190.2,179.9,190.2z" fill="#2C1D1A"></path><path class="st5" d="M192.7,352.1c0,0,4.8-4.1,10.1-2.5s4.3,5.6,0.9,8.1s-16.4,11.3-20.4,11.2s-4.9-3.3-5-5.5s1.2-10.2,1.2-10.2" fill="#2C1D1A"></path><path class="st5" d="M189.7,351.8c0.1,0.5,0.6,0.9,1.1,0.9c0.1,0,0.2,0,0.2-0.1c1.5-0.5,2.9-1,4.3-1.6c0,0,4.6,0,1.8,4.6
		s-12.5,6-15.5,4.3s-1-6.6-1-6.6" fill="#2C1D1A"></path><path class="st5" d="M204,361.1c0,0,4.8-4.1,10.1-2.5s4.3,5.6,0.9,8.1s-16.4,11.3-20.5,11.2s-4.9-3.3-5-5.5s1.2-10.2,1.2-10.2" fill="#2C1D1A"></path><path class="st2" d="M201,360.8c0.1,0.5,0.6,0.9,1.1,0.9c0.1,0,0.2,0,0.2-0.1c1.5-0.5,2.9-1,4.3-1.6c0,0,4.6,0,1.8,4.6
		s-12.5,6-15.5,4.3s-1-6.6-1-6.6" fill="#FFC9B5"></path><path class="st6" d="M206,235.2c1.6,3.5,2.4,54,1.8,66.9s-6.8,58.7-6.8,58.7s-3.6,5.4-9.5,5s-4.8-5.2-4.8-5.2s-7.6,3.5-11-4.2
		c-1.2-2.9-7-83.3-7-92.5c0.2-10.9,3.2-21.7,8.7-31.1" fill="#E04F4F"></path><path class="st5" d="M186.7,360.6c0,0-3.6-102-3.2-104.9s-1,22.4-0.9,29.3C182.7,289.9,185.7,353.7,186.7,360.6z" fill="#2C1D1A"></path><path class="st3" d="M206,235.2c0,0,5.3-36.1-2.2-42.9s-28.3-11.6-32.2-8.3s1.9,41.7,5.8,48.8S203.2,238,206,235.2z" fill="#8CCC00"></path><path class="st2" d="M196.5,165.8c0.2,0.5,3.9,14.6-2.6,16.6s-7.7-5.7-8.4-6.1s-2.7-1.1-2.6-2.7s2.6-1.6,2.6-1.6s0.9-4.1,3.9-5.8
		S196.5,165.8,196.5,165.8z" fill="#FFC9B5"></path><path class="st5" d="M190.5,169.7c0,0,5.4,0.1,7.7-2.2c1.7-1.8,1.7-4.6-0.1-6.4c-0.1-0.1-0.2-0.2-0.3-0.3c0,0,2.1-4.3-1.9-5.3
		c0,0-0.4-3.9-8.4-2.1s-15.3,7.4-15.4,14.8s-0.6,8.2-3.2,9.9s-1.9,8.1,5,8.4s16.4-0.4,17.3-3.8s-4.4-3.8-5-7.2
		S188.7,169.8,190.5,169.7z" fill="#2C1D1A"></path><path class="st2" d="M216.4,230c0,0,5.6,5.9,7.1,6.6c2.4,1.1,4.8,2.4,7,3.9c-0.8,0.7-1.4,1.4-2,2.2v0.1c-0.7-0.5-1.2-0.9-1.2-0.6
		c0.1,0.8,5.5,7.9,6.3,9s-1.5,4.6-1.5,4.6c-3.5,1.2-7.6-2.4-10.1-4.8s-3.8-8-4.7-8.7s-8.3-5.6-8.9-7.2S216.4,230,216.4,230z" fill="#FFC9B5"></path><path class="st3" d="M205.5,194.9c1.5,3.2,1.4,6.8,2.1,10.2c0.5,2.5,1,5,1.5,7.5c0.4,2.5,1.2,5,2.4,7.2c2,3.4,4.7,6.3,7,9.5
		c0.6,0.7,1.1,1.5,1.4,2.4c0.2,2.2-2.6,8.6-10.4,7.8c-3.9-3.2-7.6-6.7-11-10.4c-4.4-5.1-8.5-22.5-8.1-28.3c0.3-3.9,2.4-8.3,6.2-10.1
		c2.6-1.1,5.5-0.4,7.4,1.6C204.5,193.2,205.1,194,205.5,194.9z" fill="#8CCC00"></path><path class="st5" d="M205,235.8c0,0-6.5-5.5-8.1-8.9s-3.7-9.3-3.7-9.3s3,17.3,5.9,19.7C199.1,237.3,204.1,236.4,205,235.8z" fill="#2C1D1A"></path></g><g id="plant"><linearGradient id="SVGID_00000025432155813435319490000012803042067256533917_-VfdYMznQu9" gradientUnits="userSpaceOnUse" x1="103.0879" y1="192.233" x2="68.8779" y2="168.143" gradientTransform="matrix(1 0 0 -1 0 502)"><stop offset="0" style="stop-color: rgb(91, 29, 92);"></stop><stop offset="1" style="stop-color: rgb(247, 186, 27);"></stop></linearGradient><path d="
		M91.8,307.9c-11.7,6.8-23.7,12.9-35.3,19.6l21.9,12.1l34.6-21.6L91.8,307.9z" style="opacity: 0.32; fill: url(&quot;#SVGID_00000025432155813435319490000012803042067256533917_-VfdYMznQu9&quot;);"></path><path class="st8" d="M81.4,281.5c0,0-3.8,33.1,13.7,39.5s26.9-10.3,27.2-39.5"></path><path class="st9" d="M81.4,281.5c0,0-3.8,33.1,13.7,39.5s26.9-10.3,27.2-39.5"></path><ellipse class="st6" cx="101.8" cy="281.5" rx="20.4" ry="11.8"></ellipse><path class="st3" d="M107,255.2c0,0-8-11.6-4.5-19.6c0,0,2.9-5.1,7-6c0,0-0.4,11,3.7,9.6s0-11.5,0-11.5s4.3-5.8,9-5.6
		s0,10.3,3.3,8.6s0.2-10.2,3.9-11.3c3.4-0.8,6.8-1.3,10.2-1.6c0,0,3.5,10,0,11.4s-8.6,1.9-6.1,4.1s9.4-0.3,9.4-0.3s0.4,5.6-1.9,8.1
		s-16.2-3-13.8,1.9c2.5,4.9,11.6,2.4,11.6,2.4s-4.7,6.7-10.2,9.8S107,255.2,107,255.2z"></path><path class="st3" d="M108.9,284.2c0,0-5.8-5.7-4.7-10.6c0,0,1.1-3.2,3.3-4.1c0,0,0.9,6.3,3.1,5s-1.2-6.5-1.2-6.5s1.8-3.8,4.5-4.1
		s1.1,5.8,2.8,4.5s-1-5.8,1-6.8c1.8-0.8,3.7-1.5,5.6-2c0,0,3,5.3,1.2,6.5s-4.7,2-3,3s5.3-1.2,5.3-1.2s0.8,3.1-0.2,4.8
		s-9.5,0.1-7.6,2.5s6.9,0.1,6.9,0.1c-1.1,2.5-2.8,4.7-4.8,6.6C118.3,284.2,108.9,284.2,108.9,284.2z"></path><path class="st3" d="M87.6,271.9c0,0-14.1,0.5-18.9-6.7c0,0-2.8-5.2-1.3-9.1c0,0,9,6.2,10,2s-9.6-6.1-9.6-6.1s-2.6-6.7,0.1-10.6
		s8.7,5.5,9,1.9s-8.5-5.7-7.4-9.3c1.2-3.3,2.5-6.4,4.1-9.5c0,0,10.3,2.4,9.6,6.1s-3,8.3,0.2,7.4s4.8-8.1,4.8-8.1s5,2.7,5.8,6
		s-11.2,12-5.8,12.6s8.3-8.5,8.3-8.5s3.1,7.6,2.8,13.9C98.8,260.1,87.6,271.9,87.6,271.9z"></path><path class="st5" d="M136.4,222.3c-1.5,1.3-3,2.5-4.5,3.8c0.2-1.6,0.4-3.2,0.6-4.8c0.1-0.8-1.1-1.2-1.3-0.4
		c-0.3,2.1-0.6,4.2-0.8,6.4c-3.9,3.5-7.8,7.1-11.5,10.9c-0.3-2.7-0.4-5.4-0.2-8.1c0-0.9-1.3-0.9-1.3,0c-0.2,3.1,0,6.3,0.4,9.4
		c-2.3,2.5-4.5,5.1-6.5,7.9c-2.3-3.2-3.8-6.8-4.6-10.6c-0.2-0.8-1.4-0.5-1.3,0.4c0.8,4.1,2.4,7.9,4.9,11.2c0,0,0.1,0.1,0.1,0.1
		c-5.8,8.3-9.9,17.6-10.2,28.3c0,0.9,1.3,0.9,1.3,0c0.3-10.4,4.2-19.3,9.8-27.4c5.4,1.4,10.9,2,16.5,1.6c0.9-0.1,0.9-1.4,0-1.3
		c-5.3,0.3-10.5-0.1-15.7-1.4c2.8-3.8,5.9-7.4,9.3-10.8h0.1c3.1,0.3,6.2,0.6,9.3,0.7c2,0.1,3.9,0.2,5.8-0.7c0.8-0.4,0.1-1.5-0.7-1.1
		c-2.1,1.1-5.1,0.5-7.4,0.4c-2-0.1-3.9-0.3-5.9-0.5c4.7-4.7,9.8-9.1,14.7-13.2C138,222.7,137.1,221.8,136.4,222.3z"></path><path class="st5" d="M95.3,248.2c0.1-0.4-0.1-0.7-0.5-0.8s-0.7,0.1-0.8,0.5c-1.4,4.9-4.4,9.2-8.5,12.2c-1.5-4.2-2.9-8.4-4.1-12.7
		c3.2-3.2,5.8-6.9,7.8-11c0.4-0.8-0.8-1.4-1.2-0.7c-1.8,3.8-4.2,7.2-7.1,10.2c-1.4-4.9-2.6-9.8-3.6-14.8c-0.2-0.8-1.5-0.5-1.3,0.4
		c1.4,6.8,3.2,13.5,5.2,20.2c-2.5-0.5-4.9-1.3-7.2-2.4c-0.8-0.4-1.4,0.8-0.7,1.1c2.7,1.3,5.5,2.2,8.4,2.7l0,0c1.4,4.4,3,8.7,4.7,13
		c-4-0.1-7.9-1-11.6-2.5c-0.8-0.3-1.5,0.8-0.7,1.1c4,1.7,8.4,2.7,12.7,2.7c2.1,5.3,4.5,10.6,7,15.7c0.4,0.8,1.5,0.1,1.1-0.7
		c-3.4-6.9-6.5-13.9-9.1-21.1l0,0C90.4,258.2,93.7,253.5,95.3,248.2z"></path><path class="st5" d="M119.3,265.4l-3.7,6.1c-0.4-0.6-0.8-1.2-1.2-1.9c-0.4-0.8-1.5-0.1-1.1,0.7c0.4,0.9,0.9,1.7,1.5,2.4v0l-4,6.6
		c-0.4-0.4-0.7-1-0.8-1.6c-0.1-0.8-1.4-0.9-1.3,0c0.1,1.1,0.6,2,1.5,2.7l-5,8.3c-0.2,0.3-0.1,0.7,0.2,0.9c0.3,0.2,0.7,0.1,0.9-0.2
		l6.5-11c1.1,0,2.2-0.1,3.2-0.5c0.8-0.3,0.5-1.5-0.3-1.3c-0.7,0.2-1.4,0.3-2.1,0.4c2.2-3.7,4.4-7.4,6.6-11.1c0-0.4-0.2-0.7-0.6-0.7
		C119.6,265.3,119.5,265.3,119.3,265.4z"></path></g><g id="phone"><path class="st10" d="M260.7,89.2v19.7c0.4,3.2,2.7,5.8,5.9,6.6c5.3,1.2,6.1-5.8,6.1-5.8V95.1L260.7,89.2z"></path><g id="phone-2"><linearGradient id="SVGID_00000127726649434042838520000016236033529168365208_-VfdYMznQu9" gradientUnits="userSpaceOnUse" x1="317.5183" y1="193.2111" x2="292.6584" y2="156.4311" gradientTransform="matrix(1 0 0 -1 0 502)"><stop offset="0" style="stop-color: rgb(91, 29, 92);"></stop><stop offset="1" style="stop-color: rgb(247, 186, 27);"></stop></linearGradient><polyline points="
			385.7,330.4 323.1,371.9 232.1,312.6 288.4,277.7 		" style="opacity: 0.32; fill: url(&quot;#SVGID_00000127726649434042838520000016236033529168365208_-VfdYMznQu9&quot;);"></polyline><path class="st8" d="M296.4,48.4c20.3,12.7,71.2,42.2,88.6,52.8c3.9,2.4,4.5,6,4.6,10.6v215.6c-2.2,2.6-6,3.1-8.9,1.4l-85.5-48.3
			c-4.2-2.5-7.6-5.1-7.6-10l0.7-218.2C288.4,47.6,292.4,45.9,296.4,48.4z"></path><path class="st9" d="M288.5,50.8l27.8,16v6c0,1,0.6,2,1.4,2.5l21.5,12.4c0.9,0.5,2.1,0.2,2.6-0.7c0.2-0.3,0.3-0.6,0.3-0.9v-4.4
			l40.4,23.7c0.8,0.5,1.3,1.3,1.3,2.2v215.6c0,1-0.8,1.7-1.8,1.7c-0.3,0-0.6-0.1-0.9-0.2l-93.5-54.2c-0.3,3.4,1.3,6.7,4.1,8.6
			c4.8,3.1,90,51.3,90,51.3s6.7,3,8.7-5V108.5c0-2.8-1.4-5.5-3.7-7.2C382.9,98.5,296,48,296,48S289.9,45.1,288.5,50.8z"></path><ellipse class="st12" transform="matrix(0.9845 -0.1752 0.1752 0.9845 -28.7809 60.6208)" cx="329" cy="193.3" rx="23.9" ry="34.5"></ellipse><path class="st9" d="M341,181.6l-18.4,18.9l-5.5-5.8c-1.5,1.6-1.9,2-3.4,3.5L323,209l21.1-23.7L341,181.6z"></path><path class="st6" d="M272.7,95.2v19.7c0.4,3.2,2.7,5.8,5.9,6.6c5.3,1.2,6.1-5.8,6.1-5.8v-14.6L272.7,95.2z"></path><path class="st10" d="M284.8,104.1v19.7c0.4,3.2,2.7,5.8,5.9,6.6c5.3,1.2,6.1-5.8,6.1-5.8V110L284.8,104.1z"></path><path class="st6" d="M296.7,110.1v19.7c0.4,3.2,2.7,5.8,5.9,6.6c5.3,1.2,6.1-5.8,6.1-5.8V116L296.7,110.1z"></path><path class="st10" d="M308.7,117.3V137c0.4,3.2,2.7,5.8,5.9,6.6c5.3,1.2,6.1-5.8,6.1-5.8v-14.6L308.7,117.3z"></path><path class="st6" d="M320.6,123.3V143c0.4,3.2,2.7,5.8,5.9,6.6c5.3,1.2,6.1-5.8,6.1-5.8v-14.5L320.6,123.3z"></path><path class="st10" d="M332.4,131.4v19.7c0.4,3.2,2.7,5.8,5.9,6.6c5.3,1.2,6.1-5.8,6.1-5.8v-14.6L332.4,131.4z"></path><path class="st13" d="M260.7,89.2v19.7c0.4,3.2,2.7,5.8,5.9,6.6c5.3,1.2,6.1-5.8,6.1-5.8V95.1L260.7,89.2z"></path><path class="st13" d="M284.8,104.1v19.7c0.4,3.2,2.7,5.8,5.9,6.6c5.3,1.2,6.1-5.8,6.1-5.8V110L284.8,104.1z"></path><path class="st13" d="M308.7,117.3V137c0.4,3.2,2.7,5.8,5.9,6.6c5.3,1.2,6.1-5.8,6.1-5.8v-14.6L308.7,117.3z"></path><path class="st13" d="M332.4,131.4v19.7c0.4,3.2,2.7,5.8,5.9,6.6c5.3,1.2,6.1-5.8,6.1-5.8v-14.6L332.4,131.4z"></path><path class="st3" d="M288.5,50.8l-27.9,38.3c0,0,93.8,57.2,95.1,56.7s26.7-40.4,26.7-40.4L288.5,50.8z"></path><polyline class="st10" points="332.4,132.4 360.7,92.4 371.6,99.1 344.3,139.4 		"></polyline><polyline class="st6" points="320.6,125.4 348.4,85.4 360.7,92.4 332.4,132.4 		"></polyline><polyline class="st10" points="308.7,118.3 337.6,78.7 348.4,85.4 320.6,125.4 		"></polyline><polyline class="st6" points="296.7,111.1 324.8,71.5 337.6,78.7 308.7,118.2 		"></polyline><polyline class="st10" points="284.6,103.6 311.5,64.1 324.8,71.5 296.7,111.1 		"></polyline><polyline class="st6" points="272.7,96.4 299.4,57 311.5,64.1 284.6,103.6 		"></polyline><polyline class="st10" points="260.7,89.4 289.1,49.1 300,55.8 272.7,96.2 		"></polyline><path class="st6" d="M382.5,105.4c0,0,1.3,0.3,1.3,2.4v38l-31,17.7l4.3-27.1L382.5,105.4z"></path><path class="st14" d="M382.5,105.4c0,0,1.3,0.3,1.3,2.4v38l-31,17.7l4.3-27.1L382.5,105.4z"></path><path class="st6" d="M344.3,139.4v17.7c0.4,3.2,2.7,5.8,5.9,6.6c5.3,1.2,6.1-5.8,6.1-5.8l-0.2-11.6L344.3,139.4z"></path><path class="st13" d="M272.7,95.2v19.7c0.4,3.2,2.7,5.8,5.9,6.6c5.3,1.2,6.1-5.8,6.1-5.8v-14.6L272.7,95.2z"></path><path class="st13" d="M296.7,110.1v19.7c0.4,3.2,2.7,5.8,5.9,6.6c5.3,1.2,6.1-5.8,6.1-5.8V116L296.7,110.1z"></path><path class="st13" d="M320.6,123.3V143c0.4,3.2,2.7,5.8,5.9,6.6c5.3,1.2,6.1-5.8,6.1-5.8v-14.5L320.6,123.3z"></path><path class="st13" d="M344.3,139.4v17.7c0.4,3.2,2.7,5.8,5.9,6.6c5.3,1.2,6.1-5.8,6.1-5.8l-0.2-11.6L344.3,139.4z"></path><polyline class="st6" points="356,146.2 382.5,105.4 371.6,99.1 344.3,139.4 		"></polyline><path class="st9" d="M313.5,255.8c0.4,1.1,0.5,2.2,0.5,3.3c0,2.4-0.8,3.6-1.9,3.8c-0.7,0-1.3-0.2-1.9-0.5c-1.6-1-2.7-2.5-3.2-4.3
			c-0.4-1.1-0.5-2.2-0.5-3.3c0-2.4,0.8-3.7,1.9-3.8c0.7,0,1.3,0.1,1.9,0.5C311.9,252.5,313.1,254,313.5,255.8z M311.9,260.6
			c0.5-0.6,0.8-1.5,0.7-2.3c0-1.1-0.2-2.1-0.6-3.1c-0.3-0.8-0.9-1.4-1.6-1.8c-0.5-0.4-1.2-0.4-1.6,0c-0.5,0.7-0.8,1.5-0.6,2.3
			c0,1.1,0.2,2.1,0.6,3.1c0.3,0.8,0.9,1.4,1.6,1.9C310.8,261,311.4,261,311.9,260.6"></path><path class="st9" d="M320.1,241.2c0.4,1.1,0.5,2.2,0.5,3.3c0,2.4-0.8,3.6-1.9,3.8c-0.7,0-1.3-0.1-1.9-0.5c-1.6-1-2.7-2.5-3.2-4.3
			c-0.4-1.1-0.5-2.2-0.5-3.4c0-2.4,0.8-3.7,1.9-3.8c0.7,0,1.3,0.1,1.9,0.5C318.5,238,319.6,239.5,320.1,241.2z M318.5,246.1
			c0.5-0.6,0.8-1.5,0.7-2.3c0-1.1-0.2-2.1-0.6-3.1c-0.3-0.8-0.9-1.4-1.6-1.8c-0.5-0.4-1.2-0.4-1.6,0c-0.5,0.7-0.8,1.5-0.6,2.3
			c0,1.1,0.2,2.1,0.6,3.1c0.3,0.8,0.9,1.4,1.6,1.9C317.3,246.4,318,246.4,318.5,246.1"></path><path class="st9" d="M325.8,248.1l2.2,6l-1.6-0.9l-2.1-5.8l-0.8-0.4v4.6l-1.5-0.9l0-10.6l2.9,1.7c1.5,0.9,2.5,2.6,2.4,4.4
			C327.3,247.6,326.8,248.3,325.8,248.1z M324.9,246c0.6,0.4,0.9,0.1,0.9-0.7c0.1-0.7-0.3-1.4-0.9-1.7l-1.4-0.8v2.4L324.9,246"></path><path class="st9" d="M331.6,245.6c2.4,1.7,3.8,4.5,3.7,7.4c0,3.7-1.9,4.3-3.7,3.2l-2.5-1.4l0-10.6L331.6,245.6z M332.9,254.5
			c0.5-0.2,0.9-0.9,0.9-2.3c0-1.2-0.3-2.3-0.9-3.3c-0.5-0.7-1.1-1.3-1.8-1.7l-0.5-0.3v7l0.5,0.3
			C331.7,254.5,332.3,254.6,332.9,254.5"></path><polygon class="st9" points="341.6,251.3 341.6,253.1 338.1,251.2 338.1,253.4 340.9,255 340.9,256.8 338.1,255.2 338.1,258.1 
			341.7,260.2 341.7,262 336.6,259.1 336.7,248.5 		"></polygon><path class="st9" d="M346.9,260.3l2.2,6l-1.6-1l-2.1-5.8l-0.8-0.5v4.6l-1.5-0.8v-10.6l2.9,1.7c1.5,0.9,2.5,2.6,2.4,4.4
			C348.4,259.7,347.9,260.4,346.9,260.3z M346,258.1c0.6,0.4,0.9,0.1,0.9-0.7c0.1-0.7-0.3-1.4-0.9-1.7l-1.4-0.8v2.4L346,258.1"></path><path class="st9" d="M302.2,246.8c1.8,1.1,3,3,3.3,5.1l-1.3-0.3c-0.2-1.2-0.9-2.3-2-3c-0.5-0.4-1.2-0.4-1.6,0
			c-0.5,0.7-0.8,1.5-0.7,2.3c0,1.1,0.2,2.1,0.6,3.1c0.3,0.8,0.9,1.4,1.6,1.9c1,0.5,1.6,0.3,2-0.7l1.3,1.2c-0.4,1.8-1.6,2.3-3.3,1.3
			c-1.2-0.7-2.1-1.8-2.7-3c-0.7-1.4-1.1-3-1.1-4.6c0-1.7,0.4-2.8,1.1-3.4C300.3,246.2,301.4,246.2,302.2,246.8z"></path><polygon class="st9" points="322.8,258.8 322.7,269.4 321.2,268.6 321.3,262 319.7,266.7 318.6,266.1 317.1,259.6 317.1,266.2 
			315.6,265.4 315.7,254.7 317.4,255.7 319.2,263.4 321.1,257.8 		"></polygon><path class="st9" d="M327.4,261.5c1.6,1,2.6,2.8,2.5,4.7c0,2-0.9,2.7-2.5,1.8l-1.5-0.9v4.2l-1.5-0.9l0-10.6L327.4,261.5z
			 M327.4,266.1c0.7,0.4,1,0.1,1-0.8c0.1-0.8-0.3-1.6-1-2l-1.5-0.9v2.8L327.4,266.1"></path><polygon class="st9" points="332.8,264.5 332.7,273.4 336.1,275.3 336.1,277.1 331.2,274.3 331.3,263.7 		"></polygon><polygon class="st9" points="342.4,270.1 342.4,271.9 339,269.9 339,272.2 341.7,273.8 341.7,275.6 339,274 338.9,276.9 
			342.5,279 342.5,280.8 337.4,277.9 337.5,267.2 		"></polygon><polygon class="st9" points="349.6,274.2 349.6,276 347.4,274.7 347.3,283.6 345.8,282.7 345.9,273.9 343.6,272.6 343.7,270.8 		
			"></polygon><polygon class="st9" points="355.8,277.8 355.8,279.6 352.3,277.6 352.3,279.8 355.1,281.4 355.1,283.2 352.3,281.7 352.3,284.6 
			355.9,286.6 355.9,288.5 350.8,285.6 350.9,274.9 		"></polygon><path class="st9" d="M359.8,280c1.9,1.1,3.7,3.8,3.7,7.5s-1.9,4.3-3.8,3.2l-2.5-1.4l0.1-10.6L359.8,280z M361.1,288.9
			c0.5-0.2,0.9-1,0.9-2.3c0-1.2-0.3-2.3-0.9-3.3c-0.5-0.7-1.1-1.3-1.8-1.7l-0.5-0.3v7l0.5,0.3C359.8,289,360.5,289.1,361.1,288.9"></path></g></g><g id="shopping_items"><linearGradient id="SVGID_00000017509522843866066720000015102064824310862486_-VfdYMznQu9" gradientUnits="userSpaceOnUse" x1="329.439" y1="124.0514" x2="282.119" y2="90.7314" gradientTransform="matrix(1 0 0 -1 0 502)"><stop offset="0" style="stop-color: rgb(91, 29, 92);"></stop><stop offset="1" style="stop-color: rgb(247, 186, 27);"></stop></linearGradient><path d="
		M313.8,375.4c-16.1,9.4-32.7,17.8-48.9,27.1l30.3,16.7l47.8-29.8L313.8,375.4z" style="opacity: 0.32; fill: url(&quot;#SVGID_00000017509522843866066720000015102064824310862486_-VfdYMznQu9&quot;);"></path><linearGradient id="SVGID_00000172400948898383690940000008682357117834220447_-VfdYMznQu9" gradientUnits="userSpaceOnUse" x1="289.0198" y1="100.0502" x2="241.7099" y2="66.7302" gradientTransform="matrix(1 0 0 -1 0 502)"><stop offset="0" style="stop-color: rgb(91, 29, 92);"></stop><stop offset="1" style="stop-color: rgb(247, 186, 27);"></stop></linearGradient><path d="
		M273.3,399.4c-16.1,9.4-32.7,17.8-48.9,27.1l30.3,16.7l47.8-29.8L273.3,399.4z" style="opacity: 0.32; fill: url(&quot;#SVGID_00000172400948898383690940000008682357117834220447_-VfdYMznQu9&quot;);"></path><path class="st10" d="M340.8,390.6v-26.3l23.5-13.1v26.1L340.8,390.6z"></path><path class="st10" d="M340.8,364.3l-22.9-13.1c0,0-0.6,26.5,0,26.9s22.9,12.5,22.9,12.5V364.3z"></path><path class="st14" d="M340.8,390.6v-26.3l23.5-13.1v26.1L340.8,390.6z"></path><path class="st4" d="M340.8,364.3l-22.9-13.1c0,0-0.6,26.5,0,26.9s22.9,12.5,22.9,12.5V364.3z"></path><polygon class="st10" points="317.9,351.2 340.8,337.2 364.3,351.2 340.8,364.3 	"></polygon><polygon class="st12" points="326.6,345.8 350.5,358.9 350.5,372.6 357.3,369.2 357.3,355.1 333.5,341.6 	"></polygon><polygon class="st17" points="326.6,345.8 350.5,358.9 350.5,372.6 357.3,369.2 357.3,355.1 333.5,341.6 	"></polygon><path class="st9" d="M279.9,299.9c-16.1,1.1-15.2,27.1-16.3,37.9c-0.3,2.7,3.9,3.6,4.2,0.9c0.9-9,0.3-21.2,5.3-29.1
		c1.5-2.5,3.4-4.8,6.5-5.1c2-0.1,3.9,0.7,5.2,2.1c1.4,1.3,2.2,6.3,2.4,7.8c0.8,5.6,0.9,11.2,0.3,16.8c-0.3,2.7,3.9,3.6,4.2,0.9
		C292.6,323.7,294.2,298.9,279.9,299.9z"></path><polyline class="st10" points="304,317.4 308.8,325.5 318.5,327.5 311.2,352.5 290.6,339.2 	"></polyline><polyline class="st14" points="304,317.4 308.8,325.5 318.5,327.5 311.2,352.5 290.6,339.2 	"></polyline><polygon class="st10" points="254.4,344.8 304,317.4 302.3,358.1 264.4,361.8 	"></polygon><polygon class="st18" points="254.4,344.8 304,317.4 302.3,358.1 264.4,361.8 	"></polygon><polygon class="st10" points="272.1,350.9 279.8,427.9 326.1,400 318.5,327.5 	"></polygon><polygon class="st10" points="272.1,350.9 266.9,344.8 254.4,344.8 249.1,412.1 262.6,418.4 279.8,427.9 	"></polygon><polygon class="st4" points="272.1,350.9 266.9,344.8 254.4,344.8 249.1,412.1 262.6,418.4 279.8,427.9 	"></polygon><path class="st9" d="M300.6,312.8c-16.1,0.2-16.8,26.2-18.6,36.9c-0.4,2.7,3.7,3.9,4.1,1.1c1.4-8.9,1.6-21.1,7-28.7
		c2.2-3.1,6.2-5.7,10-3.7c3.5,1.8,3.5,5.9,3.8,9.3c0.5,5.6,0.3,11.3-0.7,16.8c-0.5,2.7,3.7,3.9,4.1,1.1
		C311.9,337.3,315,312.7,300.6,312.8z"></path></g></svg>