<svg version="1.1" id="Layer_1" xmlns="http://www.w3.org/2000/svg" xmlns:xlink="http://www.w3.org/1999/xlink" x="0px" y="0px"
	 width="100%" viewBox="0 0 1024 992" enable-background="new 0 0 1024 992" xml:space="preserve">
<path fill="#000000" opacity="1.000000" stroke="none" 
	d="
M372.688293,393.706726 
	C372.691406,383.914001 372.888184,374.575958 372.607544,365.252228 
	C372.488434,361.294800 373.945404,358.814972 376.942017,356.448029 
	C416.552155,325.161133 456.089111,293.781555 495.644958,262.425873 
	C499.169556,259.631927 502.840332,257.001648 506.183228,254.005295 
	C509.299408,251.212112 511.771698,251.618347 514.906860,254.118301 
	C538.352783,272.813873 561.925598,291.350098 585.420532,309.984406 
	C605.258606,325.718475 624.997009,341.578674 644.904236,357.224548 
	C648.083435,359.723175 649.531311,362.305573 649.386841,366.431396 
	C649.078003,375.252472 649.272339,384.092224 649.321899,392.923981 
	C649.333801,395.036316 648.887756,397.296478 651.430115,399.987152 
	C679.638306,377.719482 707.919617,355.394135 736.090515,333.155884 
	C738.484070,335.393982 737.915161,337.335541 737.916382,339.089813 
	C737.985535,441.744537 738.012695,544.399292 738.127625,647.053955 
	C738.132141,651.057434 736.967468,653.794922 733.677246,656.348572 
	C716.573914,669.623169 699.686340,683.175598 682.700928,696.602478 
	C681.293030,697.715454 680.068298,699.190063 677.903076,699.499023 
	C675.721252,697.553345 676.723083,694.887817 676.721375,692.588440 
	C676.666870,617.930359 676.694214,543.272156 676.645691,468.614014 
	C676.644043,466.062378 677.915222,462.578644 675.253784,461.191040 
	C672.497437,459.753937 670.577820,462.989746 668.614502,464.542999 
	C636.349792,490.069366 604.145874,515.672546 571.932068,541.263245 
	C569.715454,543.024109 567.528442,544.822144 565.327332,546.602539 
	C561.148560,549.982544 561.053101,551.844055 565.269470,555.255310 
	C575.499451,563.532043 585.783020,571.743225 596.097229,579.915039 
	C612.678162,593.051941 629.278687,606.164490 645.931396,619.210205 
	C648.376465,621.125671 649.413757,623.262634 649.403809,626.425720 
	C649.307861,656.921509 649.268188,687.418274 649.452637,717.913269 
	C649.478577,722.206543 647.500916,724.684631 644.491516,727.025269 
	C623.978577,742.978638 604.044006,759.654358 583.431519,775.493408 
	C560.716370,792.948181 538.395447,810.919800 516.068787,828.872620 
	C512.035767,832.115601 509.407074,832.451538 505.051727,828.968811 
	C462.502625,794.945251 419.754059,761.170776 376.976929,727.433655 
	C373.754456,724.892212 372.631104,722.139160 372.636108,718.104004 
	C372.731293,641.279602 372.649506,564.454834 372.797363,487.630524 
	C372.807037,482.592316 371.360901,479.138947 367.340240,476.217438 
	C361.684601,472.107941 356.320892,467.597412 350.816833,463.278107 
	C349.390137,462.158478 347.959503,460.647217 345.935974,461.517792 
	C343.790985,462.440521 344.258667,464.581543 344.254486,466.344940 
	C344.225098,478.676758 344.262543,491.008698 344.262665,503.340607 
	C344.263245,567.000000 344.261688,630.659363 344.241425,694.318726 
	C344.240906,695.942444 344.622406,697.655212 343.526978,699.214661 
	C341.360748,699.831726 340.185547,698.053833 338.865112,697.012329 
	C321.859985,683.598694 304.942383,670.074036 287.926208,656.674561 
	C284.932159,654.316833 283.604279,651.653076 283.607147,647.749390 
	C283.683105,544.761536 283.656952,441.773621 283.660156,338.785706 
	C283.660187,337.327972 283.434875,335.793060 285.183197,333.471741 
	C313.844666,356.127014 342.413879,378.709351 370.974701,401.285065 
	C373.454773,398.836761 372.389221,396.370605 372.688293,393.706726 
M433.311279,666.500000 
	C433.313110,669.830627 433.742889,673.227295 433.240936,676.480164 
	C431.327911,688.876587 435.738129,697.222229 446.229492,704.780701 
	C467.008545,719.750732 486.627777,736.335876 506.626587,752.377869 
	C509.499512,754.682373 511.427368,754.608887 514.326294,752.282227 
	C537.823242,733.423340 561.439453,714.712585 585.089966,696.046265 
	C587.695312,693.990112 588.792542,691.726990 588.738159,688.403015 
	C588.572144,678.247314 588.584290,668.085815 588.725586,657.929382 
	C588.783875,653.738647 587.274536,650.811035 583.936157,648.168640 
	C539.943787,613.347473 496.067932,578.379150 452.087189,543.543213 
	C446.802216,539.357117 441.749847,534.776001 435.884155,531.351746 
	C432.890778,534.236145 433.379608,537.513916 433.376495,540.601624 
	C433.334442,582.234436 433.328644,623.867188 433.311279,666.500000 
M516.048462,507.563965 
	C538.872253,489.429535 561.655945,471.244202 584.567017,453.220764 
	C587.669128,450.780426 588.773499,448.083649 588.738098,444.261047 
	C588.594604,428.763885 588.486145,413.260773 588.793335,397.768341 
	C588.893005,392.737549 587.268250,389.437042 583.346375,386.365814 
	C561.047485,368.903473 538.902466,351.244232 516.739563,333.608673 
	C510.582947,328.709656 510.558411,328.543243 504.520599,333.325073 
	C482.063660,351.110657 459.687164,368.997833 437.212769,386.761200 
	C434.106415,389.216461 433.297760,392.239044 433.315247,395.954407 
	C433.391388,412.119019 433.480377,428.286407 433.235138,444.447815 
	C433.166992,448.941345 434.751526,451.919525 438.169586,454.614105 
	C460.671478,472.353210 483.133057,490.144775 505.466339,508.095184 
	C509.167542,511.070038 512.169128,511.263611 516.048462,507.563965 
z"/>
</svg>